<!-- Generated by IcoMoon.io -->
<svg version="1.1" xmlns="http://www.w3.org/2000/svg" width="1024" height="1024" viewBox="0 0 1024 1024">
<title></title>
<g id="icomoon-ignore">
</g>
<path d="M0 194.432c37.76 16.64 78.080 27.968 120.64 33.088-43.328-26.048-76.672-67.2-92.352-116.224 40.576 23.68 85.568 40.96 133.44 50.56 38.272-40.96 92.8-66.56 153.344-66.56 115.968 0 210.048 94.080 210.048 209.92 0 16.64-1.92 32.64-5.44 48 174.592-8.32 329.408-92.16 433.024-218.88 18.176 30.784 28.416 66.624 28.416 105.664 0 72.96-37.12 137.152-93.44 174.848 34.432-1.088 66.88-10.56 95.168-26.24v2.56c0 101.76-72.32 186.752-168.512 206.080 17.664 4.736 36.224 7.296 55.36 7.296 13.44 0 26.24-1.28 39.040-3.712-26.88 83.456-104.32 144.192-196.48 145.92 71.68 56.32 162.56 89.856 260.48 89.856 16.64 0 33.28-0.96 49.92-2.88-93.44 59.52-203.52 94.336-322.56 94.336-386.56 0-597.76-320-597.76-597.12 0-8.96 0-17.92 0.64-26.88-40.96-29.44-76.8-66.56-104.96-108.8z"></path>
</svg>
